<svg width="296" height="107" viewBox="0 0 296 107" fill="none" xmlns="http://www.w3.org/2000/svg">
<path d="M61.1445 62.5547H271.895V91.8047H61.1445V62.5547Z" fill="#97233F"/>
<path d="M61.1445 11.5625H295.895V56.5625H61.1445V11.5625Z" fill="#97233F"/>
<path d="M66.6992 1.63282C65 1.21095 63.2851 0.875011 61.5508 0.621105C59.8203 0.371105 58.082 0.203136 56.332 0.121105C54.582 0.0390729 52.8359 0.0429806 51.0898 0.132824C49.3398 0.222668 47.6016 0.398449 45.8711 0.660167C44.1406 0.921886 42.4258 1.26564 40.7305 1.69532C39.0312 2.12501 37.3594 2.63282 35.7148 3.22657C34.0664 3.82032 32.4531 4.4961 30.875 5.2461C29.293 6.00001 27.7539 6.82423 26.2539 7.73048C24.7578 8.63282 23.3047 9.60548 21.9023 10.6524C20.5 11.6992 19.1484 12.8086 17.8555 13.9883C16.5625 15.168 15.3281 16.4063 14.1562 17.707C12.9844 19.0039 11.8789 20.3594 10.8398 21.7656C9.80078 23.1758 8.83203 24.6289 7.93359 26.1328C7.03906 27.6367 6.21874 29.1797 5.47265 30.7656C4.73046 32.3477 4.06249 33.9649 3.47656 35.6133C2.89453 37.2617 2.39062 38.9375 1.96874 40.6367C1.54687 42.3359 1.21093 44.0508 0.957025 45.7813C0.703119 47.5117 0.53515 49.2539 0.453119 51C0.371088 52.75 0.3789 54.4961 0.468744 56.2461C0.558588 57.9922 0.730463 59.7344 0.992182 61.4649C1.2539 63.1953 1.59765 64.9063 2.02734 66.6055C2.45702 68.3008 2.96874 69.9727 3.56249 71.6172C4.15624 73.2656 4.82812 74.8789 5.57812 76.4609C6.33203 78.0391 7.16015 79.5781 8.06249 81.0781C8.96484 82.5781 9.9414 84.0274 10.9844 85.4336C12.0312 86.8359 13.1445 88.1836 14.3242 89.4766C15.5 90.7734 16.7383 92.0039 18.0391 93.1758C19.3398 94.3516 20.6914 95.457 22.1016 96.4961C23.5078 97.5352 24.9648 98.5039 26.4687 99.3984C27.9727 100.293 29.5156 101.113 31.0977 101.859C32.6836 102.605 34.2969 103.27 35.9492 103.855C37.5976 104.441 39.2695 104.945 40.9687 105.367C42.668 105.789 44.3828 106.125 46.1172 106.379C47.8476 106.629 49.5859 106.797 51.3359 106.879C53.082 106.961 54.832 106.957 56.5781 106.867C58.3281 106.777 60.0664 106.602 61.7969 106.34C63.5273 106.078 65.2422 105.734 66.9375 105.305C68.6367 104.875 70.3047 104.367 71.9531 103.773C73.5976 103.18 75.2109 102.504 76.793 101.754C78.375 101 79.9141 100.176 81.4141 99.2695C82.9101 98.3672 84.3633 97.3945 85.7656 96.3477C87.168 95.3008 88.5195 94.1914 89.8125 93.0117C91.1055 91.832 92.3398 90.5938 93.5117 89.293C94.6836 87.9961 95.7891 86.6406 96.8281 85.2344C97.8672 83.8242 98.8359 82.3711 99.7305 80.8672C100.629 79.3633 101.449 77.8203 102.195 76.2344C102.937 74.6524 103.602 73.0352 104.187 71.3867C104.773 69.7383 105.277 68.0625 105.699 66.3633C106.121 64.6641 106.457 62.9492 106.711 61.2188C106.965 59.4883 107.133 57.7461 107.211 56C107.293 54.25 107.289 52.5039 107.199 50.7539C107.109 49.0078 106.934 47.2656 106.676 45.5352C106.414 43.8047 106.07 42.0938 105.641 40.3945C105.211 38.6992 104.699 37.0274 104.105 35.3828C103.512 33.7344 102.84 32.1211 102.086 30.5391C101.336 28.9609 100.508 27.4219 99.6055 25.9219C98.7031 24.4219 97.7266 22.9727 96.6797 21.5664C95.6367 20.1641 94.5234 18.8164 93.3437 17.5234C92.168 16.2266 90.9297 14.9961 89.6289 13.8242C88.3281 12.6484 86.9766 11.543 85.5664 10.5039C84.1601 9.46486 82.7031 8.49611 81.1992 7.60157C79.6953 6.70704 78.1523 5.88673 76.5703 5.14064C74.9844 4.39454 73.3672 3.73048 71.7187 3.14454C70.0703 2.55861 68.3984 2.0547 66.6992 1.63282Z" fill="#97233F"/>
<path d="M102.302 31.4619V41.8838H100.271V27.4932H103.115L105.427 36.1025V27.4932H107.443V41.8838H105.13L102.302 31.4619Z" fill="#FFB612"/>
<path d="M116.385 41.8838H114.104L113.713 39.2744H110.932L110.541 41.8838H108.463L110.776 27.4932H114.072L116.385 41.8838ZM111.229 37.3213H113.401L112.307 30.0557L111.229 37.3213Z" fill="#FFB612"/>
<path d="M116.776 27.4932H123.76V29.5557H121.385V41.8838H119.135V29.5557H116.776V27.4932Z" fill="#FFB612"/>
<path d="M124.744 27.4932H126.994V41.8838H124.744V27.4932Z" fill="#FFB612"/>
<path d="M130.709 38.5713C130.709 39.0947 130.81 39.4619 131.021 39.6807C131.24 39.8916 131.525 39.9932 131.881 39.9932C132.244 39.9932 132.529 39.8916 132.74 39.6807C132.947 39.4619 133.053 39.0947 133.053 38.5713V30.8057C133.053 30.2861 132.947 29.9229 132.74 29.7119C132.529 29.4932 132.244 29.3838 131.881 29.3838C131.525 29.3838 131.24 29.4932 131.021 29.7119C130.81 29.9229 130.709 30.2861 130.709 30.8057V38.5713ZM128.459 30.9463C128.459 29.79 128.748 28.8994 129.334 28.2744C129.928 27.6494 130.775 27.3369 131.881 27.3369C132.994 27.3369 133.842 27.6494 134.428 28.2744C135.021 28.8994 135.318 29.79 135.318 30.9463V38.4307C135.318 39.5986 135.021 40.4932 134.428 41.1182C133.842 41.7432 132.994 42.0557 131.881 42.0557C130.775 42.0557 129.928 41.7432 129.334 41.1182C128.748 40.4932 128.459 39.5986 128.459 38.4307V30.9463Z" fill="#FFB612"/>
<path d="M138.78 31.4619V41.8838H136.749V27.4932H139.592L141.905 36.1025V27.4932H143.921V41.8838H141.608L138.78 31.4619Z" fill="#FFB612"/>
<path d="M152.863 41.8838H150.581L150.191 39.2744H147.41L147.019 41.8838H144.941L147.253 27.4932H150.55L152.863 41.8838ZM147.706 37.3213H149.878L148.785 30.0557L147.706 37.3213Z" fill="#FFB612"/>
<path d="M153.91 27.4932H156.16V39.8213H159.878V41.8838H153.91V27.4932Z" fill="#FFB612"/>
<path d="M167.462 39.2275L169.181 27.4932H171.259L169.04 41.8838H165.665L163.447 27.4932H165.728L167.462 39.2275Z" fill="#FFB612"/>
<path d="M179.625 41.8838H177.344L176.953 39.2744H174.172L173.782 41.8838H171.703L174.016 27.4932H177.313L179.625 41.8838ZM174.469 37.3213H176.641L175.547 30.0557L174.469 37.3213Z" fill="#FFB612"/>
<path d="M187.219 36.5244V38.4307C187.219 39.5986 186.93 40.4932 186.36 41.1182C185.797 41.7432 184.957 42.0557 183.844 42.0557C182.739 42.0557 181.899 41.7432 181.328 41.1182C180.766 40.4932 180.485 39.5986 180.485 38.4307V30.9463C180.485 29.79 180.766 28.8994 181.328 28.2744C181.899 27.6494 182.739 27.3369 183.844 27.3369C184.957 27.3369 185.797 27.6494 186.36 28.2744C186.93 28.8994 187.219 29.79 187.219 30.9463V32.3525H185.078V30.8057C185.078 30.2861 184.973 29.9229 184.766 29.7119C184.555 29.4932 184.27 29.3838 183.907 29.3838C183.551 29.3838 183.266 29.4932 183.047 29.7119C182.836 29.9229 182.735 30.2861 182.735 30.8057V38.5713C182.735 39.0947 182.836 39.458 183.047 39.665C183.266 39.876 183.551 39.9775 183.907 39.9775C184.27 39.9775 184.555 39.876 184.766 39.665C184.973 39.458 185.078 39.0947 185.078 38.5713V36.5244H187.219Z" fill="#FFB612"/>
<path d="M195.147 36.5244V38.4307C195.147 39.5986 194.858 40.4932 194.288 41.1182C193.725 41.7432 192.886 42.0557 191.772 42.0557C190.667 42.0557 189.827 41.7432 189.257 41.1182C188.694 40.4932 188.413 39.5986 188.413 38.4307V30.9463C188.413 29.79 188.694 28.8994 189.257 28.2744C189.827 27.6494 190.667 27.3369 191.772 27.3369C192.886 27.3369 193.725 27.6494 194.288 28.2744C194.858 28.8994 195.147 29.79 195.147 30.9463V32.3525H193.007V30.8057C193.007 30.2861 192.901 29.9229 192.694 29.7119C192.483 29.4932 192.198 29.3838 191.835 29.3838C191.479 29.3838 191.194 29.4932 190.975 29.7119C190.764 29.9229 190.663 30.2861 190.663 30.8057V38.5713C190.663 39.0947 190.764 39.458 190.975 39.665C191.194 39.876 191.479 39.9775 191.835 39.9775C192.198 39.9775 192.483 39.876 192.694 39.665C192.901 39.458 193.007 39.0947 193.007 38.5713V36.5244H195.147Z" fill="#FFB612"/>
<path d="M196.529 27.4932H198.779V41.8838H196.529V27.4932Z" fill="#FFB612"/>
<path d="M202.431 31.4619V41.8838H200.4V27.4932H203.243L205.556 36.1025V27.4932H207.572V41.8838H205.259L202.431 31.4619Z" fill="#FFB612"/>
<path d="M211.451 33.5557H214.561V35.6182H211.451V39.8213H215.357V41.8838H209.201V27.4932H215.357V29.5557H211.451V33.5557Z" fill="#FFB612"/>
<path d="M227.256 41.8838H224.974L224.584 39.2744H221.803L221.412 41.8838H219.334L221.646 27.4932H224.943L227.256 41.8838ZM222.099 37.3213H224.271L223.178 30.0557L222.099 37.3213Z" fill="#FFB612"/>
<path d="M230.459 27.4932V38.6025C230.459 39.126 230.561 39.4893 230.771 39.6963C230.978 39.8955 231.264 39.9932 231.631 39.9932C231.982 39.9932 232.264 39.8955 232.475 39.6963C232.693 39.4893 232.803 39.126 232.803 38.6025V27.4932H234.928V38.4463C234.928 39.6143 234.639 40.5088 234.068 41.1338C233.506 41.7588 232.67 42.0713 231.568 42.0713C230.451 42.0713 229.607 41.7588 229.037 41.1338C228.475 40.5088 228.193 39.6143 228.193 38.4463V27.4932H230.459Z" fill="#FFB612"/>
<path d="M235.821 27.4932H242.805V29.5557H240.43V41.8838H238.18V29.5557H235.821V27.4932Z" fill="#FFB612"/>
<path d="M246.039 41.8838H243.789V27.4932H246.039V33.665H248.617V27.4932H250.914V41.8838H248.617V35.7119H246.039V41.8838Z" fill="#FFB612"/>
<path d="M254.622 38.5713C254.622 39.0947 254.724 39.4619 254.935 39.6807C255.153 39.8916 255.438 39.9932 255.794 39.9932C256.157 39.9932 256.442 39.8916 256.653 39.6807C256.86 39.4619 256.966 39.0947 256.966 38.5713V30.8057C256.966 30.2861 256.86 29.9229 256.653 29.7119C256.442 29.4932 256.157 29.3838 255.794 29.3838C255.438 29.3838 255.153 29.4932 254.935 29.7119C254.724 29.9229 254.622 30.2861 254.622 30.8057V38.5713ZM252.372 30.9463C252.372 29.79 252.661 28.8994 253.247 28.2744C253.841 27.6494 254.688 27.3369 255.794 27.3369C256.907 27.3369 257.755 27.6494 258.341 28.2744C258.935 28.8994 259.231 29.79 259.231 30.9463V38.4307C259.231 39.5986 258.935 40.4932 258.341 41.1182C257.755 41.7432 256.907 42.0557 255.794 42.0557C254.688 42.0557 253.841 41.7432 253.247 41.1182C252.661 40.4932 252.372 39.5986 252.372 38.4307V30.9463Z" fill="#FFB612"/>
<path d="M265.412 41.8838C265.381 41.79 265.349 41.7041 265.318 41.6182C265.295 41.5361 265.275 41.4307 265.256 41.3057C265.232 41.1807 265.216 41.0244 265.209 40.8369C265.209 40.6494 265.209 40.4111 265.209 40.1182V37.8525C265.209 37.1885 265.088 36.7197 264.849 36.4463C264.619 36.165 264.244 36.0244 263.724 36.0244H262.943V41.8838H260.693V27.4932H264.099C265.275 27.4932 266.123 27.7705 266.646 28.3213C267.177 28.876 267.443 29.7041 267.443 30.8057V31.9463C267.443 33.4268 266.951 34.3955 265.974 34.8525C266.545 35.0947 266.935 35.4775 267.146 36.0088C267.365 36.5322 267.474 37.165 267.474 37.915V40.1338C267.474 40.4893 267.482 40.8018 267.506 41.0713C267.537 41.3447 267.603 41.6143 267.709 41.8838H265.412ZM262.943 29.5557V33.9775H263.834C264.259 33.9775 264.591 33.8682 264.834 33.6494C265.072 33.4307 265.193 33.0322 265.193 32.4463V31.04C265.193 30.5205 265.099 30.1455 264.912 29.915C264.724 29.6768 264.431 29.5557 264.037 29.5557H262.943Z" fill="#FFB612"/>
<path d="M268.95 27.4932H271.2V41.8838H268.95V27.4932Z" fill="#FFB612"/>
<path d="M272.196 27.4932H279.18V29.5557H276.805V41.8838H274.555V29.5557H272.196V27.4932Z" fill="#FFB612"/>
<path d="M282.274 37.1182L279.414 27.4932H281.774L283.508 34.0557L285.227 27.4932H287.383L284.539 37.1182V41.8838H282.274V37.1182Z" fill="#FFB612"/>
<path d="M120.58 76.55L120.205 77.2532V79.5969H119.001V71.9563H120.205V75.2844L121.783 71.9563H122.97L121.298 75.3625L122.97 79.5969H121.736L120.58 76.55Z" fill="#FFB612"/>
<path d="M129.491 79.5969H128.272L128.069 78.2063H126.6L126.381 79.5969H125.288L126.506 71.9563H128.272L129.491 79.5969ZM126.741 77.175H127.897L127.319 73.3L126.741 77.175Z" fill="#FFB612"/>
<path d="M131.779 71.9563H135.482V73.05H134.232V79.5969H133.029V73.05H131.779V71.9563Z" fill="#FFB612"/>
<path d="M139.291 79.5969H138.088V71.9563H139.291V75.2219H140.65V71.9563H141.884V79.5969H140.65V76.3157H139.291V79.5969Z" fill="#FFB612"/>
<path d="M147.375 77.3782L148.188 71.9563H149.86V79.5969H148.735V74.1125L147.891 79.5969H146.766L145.86 74.1907V79.5969H144.813V71.9563H146.485L147.375 77.3782Z" fill="#FFB612"/>
<path d="M156.705 79.5969H155.486L155.283 78.2063H153.814L153.595 79.5969H152.502L153.72 71.9563H155.486L156.705 79.5969ZM153.955 77.175H155.111L154.533 73.3L153.955 77.175Z" fill="#FFB612"/>
<path d="M160.399 74.0657V79.5969H159.321V71.9563H160.836L162.071 76.5344V71.9563H163.133V79.5969H161.899L160.399 74.0657Z" fill="#FFB612"/>
<path d="M166.077 71.9563H167.983C168.585 71.9563 169.034 72.1204 169.327 72.4407C169.616 72.7532 169.765 73.2219 169.765 73.8469V77.7063C169.765 78.3235 169.616 78.7922 169.327 79.1125C169.034 79.4368 168.585 79.5969 167.983 79.5969H166.077V71.9563ZM167.28 73.05V78.5032H167.952C168.14 78.5032 168.284 78.4524 168.39 78.3469C168.503 78.2336 168.561 78.0422 168.561 77.7688V73.7844C168.561 73.5149 168.503 73.3274 168.39 73.2219C168.284 73.1086 168.14 73.05 167.952 73.05H167.28Z" fill="#FFB612"/>
<path d="M173.751 71.9563V77.8469C173.751 78.1282 173.806 78.3274 173.923 78.4407C174.036 78.5461 174.188 78.5969 174.376 78.5969C174.563 78.5969 174.712 78.5461 174.829 78.4407C174.942 78.3274 175.001 78.1282 175.001 77.8469V71.9563H176.141V77.7688C176.141 78.3938 175.989 78.8743 175.688 79.2063C175.384 79.5305 174.938 79.6907 174.345 79.6907C173.751 79.6907 173.302 79.5305 173.001 79.2063C172.696 78.8743 172.548 78.3938 172.548 77.7688V71.9563H173.751Z" fill="#FFB612"/>
<path d="M179.034 79.5969V78.4407H180.19V79.4719L179.675 80.6907H179.175L179.487 79.5969H179.034Z" fill="#FFB612"/>
<path d="M184.205 74.0657V79.5969H183.127V71.9563H184.643L185.877 76.5344V71.9563H186.94V79.5969H185.705L184.205 74.0657Z" fill="#FFB612"/>
<path d="M191.086 75.175H192.727V76.2688H191.086V78.5032H193.165V79.5969H189.883V71.9563H193.165V73.05H191.086V75.175Z" fill="#FFB612"/>
<path d="M197.745 71.9563C198.347 71.9563 198.796 72.1204 199.089 72.4407C199.39 72.7532 199.542 73.2219 199.542 73.8469V74.8313C199.542 75.4563 199.39 75.9329 199.089 76.2532C198.796 76.5657 198.347 76.7219 197.745 76.7219H197.183V79.5969H195.98V71.9563H197.745ZM197.183 73.05V75.6282H197.745C197.933 75.6282 198.077 75.5813 198.183 75.4875C198.284 75.386 198.339 75.1907 198.339 74.9094V73.7688C198.339 73.4875 198.284 73.3 198.183 73.2063C198.077 73.1047 197.933 73.05 197.745 73.05H197.183Z" fill="#FFB612"/>
<path d="M206.065 79.5969H204.846L204.643 78.2063H203.174L202.955 79.5969H201.862L203.08 71.9563H204.846L206.065 79.5969ZM203.315 77.175H204.471L203.893 73.3L203.315 77.175Z" fill="#FFB612"/>
<path d="M208.696 71.9563H209.9V78.5032H211.868V79.5969H208.696V71.9563Z" fill="#FFB612"/>
<path d="M34.3242 43.8672H43.0156V43.832C43.0391 40.9219 43.4062 38.043 44.1172 35.3516H36.6875C35.2969 37.8984 34.457 40.7891 34.3242 43.8672ZM36.6875 54.0859H44.4141C43.6172 51.3437 43.1602 48.4531 43.0469 45.5703H34.3242C34.457 48.6445 35.2969 51.5352 36.6875 54.0859ZM49.3047 63.7617L49.2852 63.7383C47.4297 61.4414 45.9883 58.7227 44.957 55.7891H37.7344C38.418 56.7852 39.1914 57.7148 40.043 58.5664C42.5508 61.0742 45.7383 62.9062 49.3047 63.7617ZM70.0508 55.7891H62.8242C61.793 58.7227 60.3516 61.4414 58.4961 63.7383L58.4766 63.7617C62.043 62.9062 65.2305 61.0742 67.7383 58.5664C68.5898 57.7148 69.3672 56.7852 70.0508 55.7891ZM73.457 45.5703H64.7344C64.6211 48.4531 64.1641 51.3437 63.3711 54.0859H71.0938C72.4844 51.5352 73.3242 48.6445 73.457 45.5703ZM71.0938 35.3516H63.6641C64.375 38.043 64.7461 40.9219 64.7656 43.832V43.8672H73.457C73.3242 40.7891 72.4844 37.8984 71.0938 35.3516ZM52.1484 65.9336C46.9648 65.5156 42.3047 63.2383 38.8398 59.7695C34.9883 55.918 32.6055 50.5977 32.6055 44.7188C32.6055 38.8398 34.9883 33.5156 38.8398 29.6641C41.1328 27.3711 43.9414 25.5977 47.082 24.5391L47.0859 26.3477C44.4141 27.3359 42.0195 28.8945 40.043 30.8672C39.1914 31.7187 38.418 32.6523 37.7344 33.6484H44.625C45.2578 31.7305 46.0781 29.9375 47.0859 28.3203V31.9531C46.8437 32.5039 46.6172 33.0703 46.4141 33.6484H47.0859V35.3516H45.875C45.1211 38.0195 44.7344 40.9102 44.7148 43.8359V43.8672H47.0859V45.5703H44.7422C44.8672 48.4648 45.3437 51.3633 46.1836 54.0859H50.1328C50.125 54.1367 50.125 54.1953 50.125 54.25V54.6211C50.125 55.0703 50.2891 55.4766 50.5625 55.7891H46.7617C47.7109 58.3281 48.9961 60.6758 50.6094 62.6758C51.043 63.2148 51.5039 63.7266 51.9844 64.2109L52.1484 64.2266V65.9336ZM60.6992 24.5391C63.8398 25.6016 66.6523 27.3711 68.9453 29.6641C72.7969 33.5156 75.1797 38.8398 75.1797 44.7188C75.1797 50.5977 72.7969 55.918 68.9453 59.7695C65.4805 63.2305 60.8359 65.5078 55.6641 65.9336V64.2227L55.7969 64.2109C56.2773 63.7266 56.7383 63.2148 57.1719 62.6758C58.7891 60.6758 60.0703 58.3281 61.0195 55.7891H57.25C57.5234 55.4766 57.6875 55.0703 57.6875 54.6211V54.25C57.6875 54.1953 57.6875 54.1406 57.6797 54.0859H61.6016C62.4375 51.3633 62.918 48.4648 63.0391 45.5703H60.6992V43.8672H63.0703V43.8359C63.0469 40.9102 62.6602 38.0195 61.9102 35.3516H60.6992V33.6484H61.3672C61.1641 33.0703 60.9414 32.5078 60.6992 31.9609V28.3242C61.7031 29.9375 62.5234 31.7344 63.1562 33.6484H70.0508C69.3672 32.6523 68.5898 31.7187 67.7383 30.8672C65.7656 28.8945 63.3711 27.3359 60.6992 26.3477V24.5391Z" fill="white"/>
<path fill-rule="evenodd" clip-rule="evenodd" d="M51.707 14.7734V19.3086H56.0742V19.3008L56.0781 14.7734H51.707ZM47.8867 13.7773C48.0547 13.9492 48.2773 14.0391 48.5156 14.0391H48.5352L56.8555 14.043H59.2695C59.5117 14.043 59.7383 13.9414 59.8984 13.7812C60.0586 13.6211 60.1563 13.4023 60.1602 13.1641C60.1484 12.9063 60.0898 12.7109 59.8984 12.5195C59.7344 12.3594 59.5117 12.2578 59.2695 12.2578H48.5156C48.2734 12.2578 48.0469 12.3555 47.8867 12.5195C47.7266 12.6758 47.6289 12.8945 47.625 13.1328C47.625 13.1445 47.625 13.1563 47.625 13.1641C47.6289 13.4023 47.7266 13.6211 47.8867 13.7773ZM50.0234 45.875C50.0234 46.6602 49.8945 47.3945 50.2734 48.0273C50.6641 48.6758 51.2227 49.2148 51.8867 49.5781C51.9453 49.6055 51.9961 49.6484 52.0312 49.7031L52.7422 50.7969H55.0469L55.7422 49.7305C55.7734 49.668 55.8203 49.6211 55.8828 49.5859H55.8867C56.5586 49.2227 57.1211 48.6836 57.5156 48.0273C57.8906 47.3945 57.7656 46.6602 57.7656 45.8711L57.7617 22.4844L50.0195 22.4805L50.0234 45.875ZM49.3242 20H45.3672C45.125 20 44.9023 20.1016 44.7383 20.2617C44.582 20.4219 44.4805 20.6367 44.4766 20.875C44.4766 20.8867 44.4766 20.8984 44.4766 20.9102C44.4805 21.1484 44.582 21.3633 44.7383 21.5234C44.9023 21.6836 45.125 21.7852 45.3711 21.7852H62.4141C62.6563 21.7852 62.8789 21.6836 63.043 21.5195C63.1992 21.3633 63.3008 21.1445 63.3047 20.9062C63.3047 20.6602 63.2187 20.4375 63.043 20.2617C62.8828 20.1016 62.668 20.0039 62.4258 20H49.3242ZM48.4961 14.7383C48.0664 14.7344 47.6758 14.5547 47.3906 14.2734C47.1094 13.9883 46.9297 13.5977 46.9258 13.1719C46.9258 13.1562 46.9258 13.1406 46.9258 13.125C46.9297 12.6953 47.1094 12.3086 47.3906 12.0234C47.6797 11.7344 48.0781 11.5586 48.5156 11.5586H59.2891C59.7188 11.5625 60.1094 11.7422 60.3945 12.0273C60.6758 12.3086 60.8516 12.6992 60.8594 13.1289C60.8594 13.1406 60.8594 13.1562 60.8594 13.168C60.8555 13.6016 60.6758 13.9922 60.3906 14.2734C60.1055 14.5625 59.707 14.7422 59.2695 14.7422L57.1602 14.7383V19.3008H62.3945C62.4063 19.3008 62.4219 19.3008 62.4336 19.3008C62.8633 19.3047 63.2539 19.4844 63.5352 19.7656C63.8203 20.0508 63.9961 20.4375 64.0039 20.8672C64.0039 20.8828 64.0039 20.8984 64.0039 20.9141C64 21.3438 63.8203 21.7305 63.5352 22.0156C63.25 22.3047 62.8516 22.4805 62.4141 22.4805L58.8047 22.4844L58.8086 45.8711C58.8086 46.7891 58.5547 47.6484 58.1133 48.3867C57.6719 49.1211 57.043 49.7344 56.2969 50.1562L55.5273 51.3359L55.5312 51.3398C55.4844 51.4062 55.4219 51.4531 55.3516 51.4766C55.3477 51.4805 55.3438 51.4805 55.3438 51.4805H52.4453C52.3594 51.4531 52.2891 51.3945 52.25 51.3203L51.4922 50.1562C50.7461 49.7344 50.1172 49.1211 49.6758 48.3867C49.2344 47.6484 48.9805 46.7891 48.9805 45.875L48.9766 22.4844H45.3672C44.9297 22.4844 44.5352 22.3047 44.2461 22.0195C43.957 21.7305 43.7773 21.332 43.7773 20.8945C43.7773 20.8867 43.7773 20.8789 43.7773 20.875C43.7852 20.4453 43.9609 20.0508 44.2461 19.7695C44.5352 19.4805 44.9297 19.3008 45.3711 19.3008H50.625V14.7383H48.5352C48.5234 14.7383 48.5078 14.7383 48.4961 14.7383Z" fill="white"/>
<path fill-rule="evenodd" clip-rule="evenodd" d="M54.3203 68.3672L54.3242 54.6133H53.4883L53.4844 68.9727L54.3203 68.3672Z" fill="white"/>
<path fill-rule="evenodd" clip-rule="evenodd" d="M50.6719 30.2812V29.3984H49.6016V30.2812H50.6719ZM51.6172 30.2812V29.3984H55.0859C55.332 29.3984 55.5312 29.5977 55.5312 29.8398C55.5312 30.082 55.332 30.2812 55.0859 30.2812H51.6172Z" fill="white"/>
<path fill-rule="evenodd" clip-rule="evenodd" d="M50.6719 27.3555V26.4688H49.6016V27.3555H50.6719ZM51.6172 27.3555V26.4688H55.0859C55.332 26.4688 55.5312 26.668 55.5312 26.9141C55.5312 27.1563 55.332 27.3555 55.0859 27.3555H51.6172Z" fill="white"/>
<path fill-rule="evenodd" clip-rule="evenodd" d="M50.6719 33.2109V32.3242H49.6016V33.2109H50.6719ZM51.6172 33.2109V32.3242H55.0859C55.332 32.3242 55.5312 32.5234 55.5312 32.7656C55.5312 33.0117 55.332 33.2109 55.0859 33.2109H51.6172Z" fill="white"/>
<path fill-rule="evenodd" clip-rule="evenodd" d="M50.6719 36.1367V35.25H49.6016V36.1367H50.6719ZM51.6172 36.1367V35.25H55.0859C55.332 35.25 55.5312 35.4492 55.5312 35.6953C55.5312 35.9375 55.332 36.1367 55.0898 36.1367H51.6172Z" fill="white"/>
<path fill-rule="evenodd" clip-rule="evenodd" d="M50.6719 38.6211V38.1797H49.6016V38.6211H50.6719ZM51.6172 38.6211V38.1797H55.0898C55.332 38.1797 55.5312 38.3789 55.5312 38.6211H51.6172Z" fill="white"/>
<path fill-rule="evenodd" clip-rule="evenodd" d="M52.0391 52.2891H52.332L53.0508 55.9922H54.7578L55.4766 52.2891H55.7695C55.9063 52.2891 56.0195 52.1758 56.0195 52.0391V51.6914C56.0195 51.5547 55.9063 51.4414 55.7695 51.4414H52.0391C51.9023 51.4414 51.7891 51.5547 51.7891 51.6914V52.0391C51.7891 52.1758 51.9023 52.2891 52.0391 52.2891Z" fill="white"/>
<path fill-rule="evenodd" clip-rule="evenodd" d="M58.1094 45.8711V38.6211H55.5312C55.5312 38.8672 55.332 39.0625 55.0898 39.0625L51.6172 39.0664V38.6211H50.6719V39.0625L49.6758 39.0664V41.1094H50.6719V41.9922H49.6758V44.0586H50.6719V44.9453H49.6758L49.6797 45.875C49.6797 46.6602 49.8945 47.3945 50.2734 48.0273C50.6641 48.6758 51.2227 49.2148 51.8867 49.5781C51.9453 49.6055 51.9961 49.6484 52.0312 49.7031L52.7422 50.7969H55.0469L55.7422 49.7305C55.7734 49.668 55.8203 49.6211 55.8867 49.5859C56.5586 49.2227 57.1211 48.6836 57.5156 48.0273C57.8906 47.3945 58.1094 46.6602 58.1094 45.8711ZM51.6172 41.9922V41.1094H55.0859C55.332 41.1094 55.5312 41.3047 55.5312 41.5508C55.5312 41.793 55.332 41.9922 55.0898 41.9922H51.6172ZM51.6172 44.9453V44.0586H55.0859C55.332 44.0586 55.5312 44.2578 55.5312 44.5039C55.5312 44.7461 55.332 44.9453 55.0898 44.9453H51.6172Z" fill="white"/>
<path fill-rule="evenodd" clip-rule="evenodd" d="M46.0938 21.7852H62.4141C62.6563 21.7852 62.8789 21.7109 63.043 21.5977C63.1992 21.4844 63.3008 21.332 63.3047 21.1641C63.3047 20.9883 63.2187 20.8281 63.043 20.7031C62.8828 20.5938 62.668 20.5234 62.4258 20.5195H45.3672C45.125 20.5195 44.9023 20.5898 44.7383 20.707C44.582 20.8164 44.4805 20.9727 44.4766 21.1406C44.4766 21.1484 44.4766 21.1563 44.4766 21.1641C44.4805 21.332 44.582 21.4883 44.7383 21.5977C44.9023 21.7148 45.125 21.7852 45.3711 21.7852H46.0938Z" fill="white"/>
<path fill-rule="evenodd" clip-rule="evenodd" d="M48.5352 14.0391L56.8555 14.043H59.2695C59.5117 14.043 59.7383 13.9649 59.8984 13.8438C60.0586 13.7266 60.1563 13.5625 60.1602 13.3828C60.1484 13.1875 60.0898 13.0391 59.8984 12.8945C59.7344 12.7735 59.5117 12.6992 59.2695 12.6992H48.5156C48.2734 12.6953 48.0469 12.7735 47.8867 12.8945C47.7266 13.0156 47.6289 13.1758 47.625 13.3555C47.625 13.3672 47.625 13.375 47.625 13.3828C47.6289 13.5625 47.7266 13.7227 47.8867 13.8438C48.0547 13.9727 48.2773 14.0391 48.5156 14.0391H48.5352Z" fill="white"/>
<path d="M20.3594 78.5586H22.793L24.5742 83.5273L26.3555 78.5586H28.7461L25.5625 86.4648H23.543L20.3594 78.5586Z" fill="white"/>
<path d="M33.0039 83.3125L32.1328 81.082L31.2461 83.3125H33.0039ZM31.0977 78.5039H33.1953L36.5391 86.4062H34.207L33.6328 85.0078H30.6055L30.0469 86.4062H27.7578L31.0977 78.5039Z" fill="white"/>
<path d="M36.5234 82.4844C36.5234 80.1953 38.2852 78.4023 40.6602 78.4023C42.2656 78.4023 43.2617 79.0977 43.957 80.0625L42.3633 81.2969C41.918 80.7344 41.3906 80.3867 40.6367 80.3867C39.5391 80.3867 38.7656 81.3164 38.7656 82.4844C38.7656 83.6602 39.5391 84.582 40.6367 84.582C41.457 84.582 41.9375 84.1992 42.4102 83.6289L44.0469 84.793C43.3047 85.8125 42.3086 86.5664 40.5703 86.5664C38.3281 86.5664 36.5234 84.8516 36.5234 82.4844Z" fill="white"/>
<path d="M44.4844 82.4844C44.4844 80.1953 46.2461 78.4023 48.6211 78.4023C50.2227 78.4023 51.2227 79.0977 51.918 80.0625L50.3242 81.2969C49.8789 80.7344 49.3516 80.3867 48.5977 80.3867C47.5 80.3867 46.7266 81.3164 46.7266 82.4844C46.7266 83.6602 47.5 84.582 48.5977 84.582C49.418 84.582 49.8984 84.1992 50.3711 83.6289L52.0078 84.793C51.2656 85.8125 50.2695 86.5664 48.5312 86.5664C46.2891 86.5664 44.4844 84.8516 44.4844 82.4844Z" fill="white"/>
<path d="M52.9805 78.5586H55.168V86.4062H52.9805V78.5586Z" fill="white"/>
<path d="M56.6055 78.5586H58.6328L61.8633 82.707V78.5586H64.0156V86.4062H62.1094L58.7578 82.1016V86.4062H56.6055V78.5586Z" fill="white"/>
<path d="M70.0234 83.3125L69.1484 81.082L68.2656 83.3125H70.0234ZM68.1172 78.5039H70.2148L73.5547 86.4062H71.2227L70.6523 85.0078H67.625L67.0625 86.4062H64.7773L68.1172 78.5039Z" fill="white"/>
<path d="M75.2266 80.4648H72.8711V78.5586H79.7578V80.4648H77.4023V86.4062H75.2266V80.4648Z" fill="white"/>
<path d="M80.7109 78.5586H87.0234V80.4102H82.8633V81.5977H86.6289V83.3125H82.8633V84.5586H87.0781V86.4062H80.7109V78.5586Z" fill="white"/>
<path d="M53.1445 73.1367L52.9102 72.7695C52.6523 72.9609 52.3711 73.2852 52.1367 73.6797C52.3125 73.7695 52.4883 73.8477 52.6641 73.918C52.7852 73.6094 52.9453 73.3359 53.1445 73.1367ZM55.6406 73.7773C55.9336 75.1133 55.6445 76.0703 54.9375 76.707C56.1367 76.1133 56.0977 74.625 55.6406 73.7773ZM52.0312 73.9219C51.9531 74.1445 51.9023 74.3828 51.8906 74.6289C51.8594 75.25 51.9687 76.0156 52.5898 76.0078C52.4922 75.5508 52.4844 74.8555 52.6133 74.2266C52.4023 74.1563 52.207 74.0625 52.0312 73.9219ZM53.9062 69.6367C54.4883 72.168 56.2383 73.4336 56.2383 74.6953C56.2383 75.9609 55.6562 77.2266 53.9062 77.2266C52.1523 77.2266 51.5703 75.9609 51.5703 74.6953C51.5703 73.4336 53.3203 72.168 53.9062 69.6367Z" fill="white"/>
</svg>
